:SAMPLES-PER-SECOND 30
:FULLY-SPECIFIED
:DEGREES
414
root  25.151 38.6527 -9.18577 174.903 -68.4451 179.368
RightUpLeg  15.5522 -7.9225 0.990044
RightLeg  7.50722 -1.69546 0.716941
RightFoot  -16.1764 -0.261177 -3.60706
RightToes  2.96859e-009 0 -3.6325e-017
Spine  5.54487 0.642705 7.99359
Spine1  7.96336 2.24648 -5.04811
HEad  -22.8959 4.55952 2.68553
LeftShoulder1  0.146709 3.0855 -28.9316
LeftArm  -5.86565 12.717 -42.8564
LeftForeArm  25.5972 -42.2104 -8.45132
LeftHand  -0.120039 0.467553 2.79527
RightShoulder  -0.504379 -5.04906 25.8201
RightArm  25.0849 11.9771 51.6183
RightForeArm  -7.08278 23.5775 5.41299
RightHand  -0.821546 4.73552 -9.68683
LeftUpLeg  -15.6854 2.01671 -0.854983
LeftLeg  -1.76634 -0.930789 -1.10177
LeftFoot  -1.67194 0.51674 -6.00391
LeftToes  3.24686e-010 -7.02549e-012 1.39809e-011
415
root  23.8916 38.3651 -9.78385 173.964 -68.5125 -179.79
RightUpLeg  18.2002 -8.08675 0.957826
RightLeg  7.45493 -1.53651 0.938705
RightFoot  -17.7946 -0.272463 -2.69891
RightToes  2.96859e-009 0 -3.6325e-017
Spine  5.44074 0.435577 7.42766
Spine1  8.3479 2.0152 -5.09052
HEad  -23.1776 6.01211 2.59843
LeftShoulder1  0.161884 3.04183 -28.9019
LeftArm  -4.60377 12.6565 -42.6991
LeftForeArm  24.7703 -40.1008 -7.84529
LeftHand  -0.0955019 0.832885 2.34949
RightShoulder  -0.50255 -5.02517 26.2071
RightArm  26.707 12.2549 52.3608
RightForeArm  -7.34077 21.8879 5.36991
RightHand  -0.811444 4.56188 -9.7267
LeftUpLeg  -15.7761 1.82562 -1.39964
LeftLeg  -4.62805 2.62608 -1.39604
LeftFoot  -2.44919 0.551705 -6.80536
LeftToes  3.24686e-010 -7.02549e-012 1.39809e-011
416
root  22.5129 38.0389 -10.4059 173.229 -68.729 -179.291
RightUpLeg  20.7311 -8.59044 0.414009
RightLeg  8.45161 -0.89224 1.29438
RightFoot  -19.4281 -0.231589 -1.42752
RightToes  2.96859e-009 0 -3.6325e-017
Spine  5.07577 0.392579 6.7057
Spine1  8.98739 1.92575 -4.87155
HEad  -23.3424 6.21716 3.07831
LeftShoulder1  0.161761 3.04697 -29.2616
LeftArm  -2.68829 11.9443 -42.4753
LeftForeArm  23.4092 -36.1989 -6.80328
LeftHand  -0.0904708 1.32021 2.43233
RightShoulder  -0.448939 -4.86028 26.2093
RightArm  26.6142 11.4743 53.0172
RightForeArm  -6.18726 19.6872 5.7833
RightHand  -0.74909 4.06404 -9.45029
LeftUpLeg  -16.7708 1.6103 -2.20402
LeftLeg  -1.04214 5.00734 -1.65264
LeftFoot  -1.15413 0.342409 -4.02532
LeftToes  3.24686e-010 -7.02549e-012 1.39809e-011
417
root  21.0591 37.8014 -11.0248 174.19 -68.251 179.389
RightUpLeg  23.2259 -9.5762 -1.52008
RightLeg  9.77427 1.81308 1.69753
RightFoot  -20.4129 -0.0627799 0.956495
RightToes  2.96859e-009 0 -3.6325e-017
Spine  4.47362 0.789302 6.05129
Spine1  9.93525 2.64053 -5.95459
HEad  -23.4202 6.38963 4.12232
LeftShoulder1  0.0975918 3.22607 -29.1451
LeftArm  -0.305341 11.213 -42.5878
LeftForeArm  21.7027 -31.2167 -5.60573
LeftHand  -0.0769356 2.16161 2.37892
RightShoulder  -0.486219 -4.94411 26.8954
RightArm  24.7288 9.84523 53.1825
RightForeArm  -3.56523 16.9349 6.68089
RightHand  -0.703004 3.62932 -9.29163
LeftUpLeg  -18.439 1.20509 -3.70345
LeftLeg  5.81755 4.14146 -0.93855
LeftFoot  3.88207 -0.501737 3.47381
LeftToes  3.24686e-010 -7.02549e-012 1.39809e-011
418
root  19.5098 37.5735 -11.6527 176.522 -67.4134 176.44
RightUpLeg  24.8447 -10.5441 -4.2868
RightLeg  13.3418 5.21168 1.73999
RightFoot  -20.8999 0.234118 4.38708
RightToes  2.96859e-009 0 -3.6325e-017
Spine  4.50022 1.46321 4.6258
Spine1  9.67239 3.39487 -6.56143
HEad  -21.9221 6.63104 3.74338
LeftShoulder1  -0.0672647 3.69228 -29.6716
LeftArm  2.15499 11.1201 -42.1262
LeftForeArm  19.6794 -25.6372 -4.49147
LeftHand  -0.0478784 2.70273 1.53233
RightShoulder  -0.562351 -5.13523 27.7022
RightArm  21.986 7.74791 52.8776
RightForeArm  0.50613 13.21 7.99216
RightHand  -0.65659 3.5837 -8.72025
LeftUpLeg  -19.4237 1.21795 -5.53112
LeftLeg  11.8421 2.51915 0.172469
LeftFoot  9.47166 -1.32749 7.04494
LeftToes  3.24686e-010 -7.02549e-012 1.39809e-011
419
root  17.9861 37.3463 -12.2961 179.96 -67.6428 172.341
RightUpLeg  24.3328 -10.2034 -6.6583
RightLeg  20.6493 6.38272 2.3883
RightFoot  -20.2442 0.631273 10.1126
RightToes  2.96859e-009 0 -3.6325e-017
Spine  4.9118 1.73019 2.10047
Spine1  8.79868 3.40794 -6.51594
HEad  -18.0683 6.92465 -0.565328
LeftShoulder1  -0.0842333 3.73607 -30.113
LeftArm  0.790063 11.8689 -41.4224
LeftForeArm  18.7057 -19.3892 -4.62811
LeftHand  -0.036801 4.03656 1.3566
RightShoulder  -0.585847 -5.17512 28.2933
RightArm  18.0819 5.11783 52.9141
RightForeArm  6.3273 8.96865 8.75476
RightHand  -0.516405 2.40716 -7.89137
LeftUpLeg  -20.4959 1.58658 -7.7914
LeftLeg  19.6227 1.8595 1.1474
LeftFoot  6.56212 -1.48444 9.15
LeftToes  3.24686e-010 -7.02549e-012 1.39809e-011
420
root  16.5867 37.3263 -12.8097 -177.531 -67.3861 169.086
RightUpLeg  21.2382 -8.69865 -8.66725
RightLeg  31.0447 6.35763 3.8743
RightFoot  -14.7369 0.372133 17.008
RightToes  2.96859e-009 0 -3.6325e-017
Spine  5.75755 1.9846 0.96308
Spine1  8.31654 3.68129 -7.81805
HEad  -17.5028 6.51054 -0.51298
LeftShoulder1  -0.105519 3.79191 -30.4964
LeftArm  -6.09188 12.114 -40.7233
LeftForeArm  22.8096 -11.6986 -6.32402
LeftHand  -0.0273714 4.20927 0.600476
RightShoulder  -0.601505 -5.21806 28.3406
RightArm  15.321 2.53988 53.5921
RightForeArm  10.9621 4.77944 8.63975
RightHand  -0.455501 1.76712 -7.5683
LeftUpLeg  -19.3778 1.52743 -9.2099
LeftLeg  23.361 2.58639 1.56615
LeftFoot  3.2948 -1.35101 10.3282
LeftToes  3.24686e-010 -7.02549e-012 1.39809e-011
421
root  15.2784 37.4561 -13.2493 -175.402 -65.7989 166.644
RightUpLeg  14.4423 -5.2618 -9.85194
RightLeg  44.0121 5.65373 5.56402
RightFoot  -3.05101 -1.2285 18.2467
RightToes  2.96859e-009 0 -3.6325e-017
Spine  6.34125 2.44402 0.456131
Spine1  7.82078 4.29774 -9.52306
HEad  -17.0219 6.91197 -0.992934
LeftShoulder1  -0.0800518 3.7236 -30.2911
LeftArm  -9.16224 13.1639 -40.7117
LeftForeArm  22.0686 -6.03134 -5.93632
LeftHand  -0.0292271 5.31044 0.322775
RightShoulder  -0.573672 -5.14358 28.2141
RightArm  14.9127 0.633258 54.1324
RightForeArm  13.0338 2.02667 8.55901
RightHand  -0.373778 0.677879 -7.22827
LeftUpLeg  -17.6605 2.31046 -10.4348
LeftLeg  24.7828 3.59139 2.15654
LeftFoot  0.503475 -1.13652 10.8718
LeftToes  3.24686e-010 -7.02549e-012 1.39809e-011
422
root  14.0657 37.5866 -13.6853 -173.137 -64.4987 163.971
RightUpLeg  6.93779 -1.78956 -10.7585
RightLeg  55.68 4.78437 7.04456
RightFoot  8.56589 -2.30976 13.154
RightToes  2.96859e-009 0 -3.6325e-017
Spine  6.8865 2.60012 -1.27991
Spine1  7.7039 4.24131 -9.80533
HEad  -17.0034 8.15295 -2.27853
LeftShoulder1  -0.114968 3.81628 -30.6673
LeftArm  -9.28212 14.5789 -40.2141
LeftForeArm  21.4494 -3.58305 -5.38634
LeftHand  -0.0515116 6.30082 -1.52983
RightShoulder  -0.563165 -5.1134 28.2069
RightArm  14.8856 -0.520283 53.8428
RightForeArm  15.3823 1.56711 8.53461
RightHand  -0.29942 0.454533 -6.03581
LeftUpLeg  -15.4759 3.15193 -11.804
LeftLeg  25.1407 4.20313 2.50598
LeftFoot  -2.07742 -0.847348 10.5745
LeftToes  3.24686e-010 -7.02549e-012 1.39809e-011
423
root  12.8788 37.8009 -14.1011 -173.465 -64.1623 163.885
RightUpLeg  1.11762 0.0787663 -10.8211
RightLeg  63.7675 3.30913 6.74446
RightFoot  6.30928 -1.82982 12.0197
RightToes  2.96859e-009 0 -3.6325e-017
Spine  7.5061 2.24582 -2.08884
Spine1  7.82025 3.56345 -9.29979
HEad  -16.7774 9.47434 -3.4214
LeftShoulder1  -0.147563 3.90152 -30.9848
LeftArm  -8.9117 16.0458 -39.9403
LeftForeArm  23.7701 -2.89766 -5.53811
LeftHand  -0.111068 8.01408 -2.8806
RightShoulder  -0.583849 -5.17794 28.1142
RightArm  15.1031 -1.59929 52.8822
RightForeArm  15.2067 3.27424 8.50067
RightHand  -0.324443 0.493201 -6.47778
LeftUpLeg  -12.6644 3.26291 -11.9464
LeftLeg  24.8345 4.53586 2.63999
LeftFoot  -4.1708 -0.619265 10.265
LeftToes  3.24686e-010 -7.02549e-012 1.39809e-011
424
root  11.6895 38.099 -14.5372 -174.65 -64.5778 164.963
RightUpLeg  -4.44959 1.06089 -10.3331
RightLeg  68.4065 2.41103 6.02224
RightFoot  4.43672 -1.46271 10.7561
RightToes  2.96859e-009 0 -3.6325e-017
Spine  7.43128 1.78996 -2.45675
Spine1  8.34499 2.7726 -8.25853
HEad  -16.131 10.5857 -4.20746
LeftShoulder1  -0.138602 3.87462 -31.2266
LeftArm  -8.13067 17.3273 -39.8825
LeftForeArm  27.4968 -3.31272 -6.05378
LeftHand  -0.0781769 6.99741 -2.64137
RightShoulder  -0.645196 -5.35404 28.1607
RightArm  15.3586 -2.9422 51.1833
RightForeArm  12.9941 6.45751 8.27418
RightHand  -0.378543 0.947841 -7.05494
LeftUpLeg  -9.56822 3.49963 -11.4193
LeftLeg  23.6718 4.27455 2.31651
LeftFoot  -5.70007 -0.471418 10.2374
LeftToes  3.24686e-010 -7.02549e-012 1.39809e-011
425
root  10.5381 38.3558 -14.986 -175.864 -65.5735 166.212
RightUpLeg  -9.69406 1.32642 -9.75377
RightLeg  70.0848 1.88399 5.01949
RightFoot  3.95827 -1.16147 8.83418
RightToes  2.96859e-009 0 -3.6325e-017
Spine  7.51323 1.23627 -2.86165
Spine1  8.33613 1.82259 -6.98964
HEad  -14.7241 11.6069 -4.77213
LeftShoulder1  -0.0982057 3.76993 -30.7969
LeftArm  -7.19922 18.499 -40.4024
LeftForeArm  29.1025 -4.60978 -6.73659
LeftHand  -0.0652573 6.66471 -2.29534
RightShoulder  -0.689129 -5.48348 28.1317
RightArm  16.7746 -4.34945 49.3808
RightForeArm  9.11798 10.0042 7.8773
RightHand  -0.422875 1.81267 -6.98687
LeftUpLeg  -6.58145 3.48941 -10.6238
LeftLeg  22.432 3.60513 1.73615
LeftFoot  -7.11553 -0.334125 10.1907
LeftToes  3.24686e-010 -7.02549e-012 1.39809e-011
426
root  9.37252 38.5871 -15.4393 -177.214 -66.6604 167.369
RightUpLeg  -13.7761 1.4895 -9.21312
RightLeg  68.4658 1.68699 4.01975
RightFoot  2.68467 -0.952443 7.8777
RightToes  2.96859e-009 0 -3.6325e-017
Spine  7.75747 0.868816 -3.18158
Spine1  8.17813 1.06382 -5.61066
HEad  -13.322 12.3245 -4.92115
LeftShoulder1  -0.11444 3.81324 -30.8653
LeftArm  -6.80311 19.0851 -40.6168
LeftForeArm  29.2308 -6.14993 -7.05554
LeftHand  -0.0283897 5.25963 -1.88862
RightShoulder  -0.669533 -5.44554 27.79
RightArm  18.993 -5.8839 47.7966
RightForeArm  4.90253 13.398 7.08269
RightHand  -0.431815 2.2985 -6.71349
LeftUpLeg  -3.13947 3.69213 -9.77817
LeftLeg  20.7567 2.48621 1.01373
LeftFoot  -8.34202 -0.217289 10.1973
LeftToes  3.24686e-010 -7.02549e-012 1.39809e-011
427
root  8.18162 38.7697 -15.8768 -178.688 -67.714 168.543
RightUpLeg  -16.6453 1.27682 -8.99143
RightLeg  63.7808 1.66241 3.14319
RightFoot  0.701991 -0.776 7.39331
RightToes  2.96859e-009 0 -3.6325e-017
Spine  7.90093 0.536449 -2.6574
Spine1  8.19451 0.660903 -4.97551
HEad  -11.5476 12.7245 -4.45197
LeftShoulder1  -0.100641 3.7765 -30.76
LeftArm  -6.34874 18.8723 -40.8101
LeftForeArm  28.3101 -7.72259 -7.30499
LeftHand  -0.0306544 5.37695 -2.25891
RightShoulder  -0.652388 -5.41025 27.5221
RightArm  20.1936 -6.97371 46.5459
RightForeArm  2.48139 15.7201 6.30394
RightHand  -0.450337 2.48543 -6.83735
LeftUpLeg  0.576887 4.29926 -8.88449
LeftLeg  18.7405 1.07392 0.325735
LeftFoot  -9.53101 -0.106612 10.352
LeftToes  3.24686e-010 -7.02549e-012 1.39809e-011
